<svg width="431" height="483" viewBox="0 0 431 483" fill="none" xmlns="http://www.w3.org/2000/svg">
    <mask id="path-1-inside-1_6_6" fill="white">
        <path fill-rule="evenodd" clip-rule="evenodd"
            d="M240.5 7.43378C225.03 -1.49786 205.97 -1.49787 190.5 7.43377L25.2927 102.816C9.82264 111.748 0.292694 128.254 0.292694 146.118V336.883C0.292694 354.746 9.82263 371.252 25.2927 380.184L190.5 475.566C205.97 484.498 225.03 484.498 240.5 475.566L405.707 380.184C421.177 371.252 430.707 354.746 430.707 336.883V146.118C430.707 128.254 421.177 111.748 405.707 102.816L240.5 7.43378ZM324.725 139.098C326.458 133.477 326.458 129.143 324.725 126.098C323.57 123.053 321.693 120.477 319.093 118.369C316.493 116.26 313.461 114.855 309.995 114.152C306.817 113.215 303.496 112.864 300.029 113.098C296.563 113.333 293.386 114.152 290.498 115.558C284.432 118.837 279.377 123.99 275.334 131.017C271.579 137.81 268.835 143.9 267.102 149.287C267.102 149.756 266.668 151.395 265.802 154.206C264.935 157.017 264.069 160.062 263.202 163.341C262.336 166.62 261.469 169.665 260.603 172.476L259.736 176.341H209.044C210.777 169.783 212.51 163.107 214.244 156.314C216.265 149.521 218.287 142.846 220.309 136.287C222.042 130.432 222.042 125.396 220.309 121.179C218.865 116.963 216.265 113.918 212.51 112.044C208.756 110.17 204.279 109.585 199.079 110.287C193.88 110.756 188.537 112.864 183.049 116.612C178.138 119.891 174.095 123.99 170.917 128.909C168.029 133.828 165.429 139.098 163.119 144.72C161.097 150.107 159.364 155.612 157.919 161.233C156.764 166.855 155.609 171.891 154.453 176.341H127.158C123.403 176.341 119.503 176.692 115.46 177.395C111.416 177.864 107.661 178.801 104.195 180.206C100.729 181.611 97.8404 183.602 95.5296 186.179C93.5078 188.521 92.4968 191.566 92.4968 195.314C92.4968 198.359 93.2189 200.936 94.6631 203.044C96.3962 204.917 98.5625 206.44 101.162 207.611C104.05 208.548 107.083 209.251 110.261 209.719C113.727 209.954 117.048 210.071 120.226 210.071H144.488L127.158 270.151H108.528C101.884 269.917 95.6741 269.8 89.8972 269.8C83.5427 270.034 79.0657 272.025 76.4661 275.773C74.1554 279.286 73 283.268 73 287.719C73 291.935 74.5886 295.214 77.7659 297.557C80.9431 299.665 84.8425 301.187 89.464 302.124C94.0854 303.061 98.8513 303.529 103.762 303.529H117.193C116.326 306.809 115.315 310.205 114.16 313.719L111.56 323.556C110.694 326.836 109.394 330.466 107.661 334.448C106.217 338.196 105.061 342.061 104.195 346.043C103.328 350.025 103.184 353.889 103.762 357.637C104.339 361.385 106.361 364.664 109.827 367.475C115.026 371.691 120.803 373.448 127.158 372.745C133.801 372.043 139.722 370.169 144.922 367.124C150.698 364.079 154.742 359.98 157.053 354.826C159.652 349.439 161.674 344.169 163.119 339.016C164.852 332.926 166.44 326.953 167.884 321.097L173.084 303.529H224.642C223.775 307.511 222.764 311.728 221.609 316.178C220.454 320.394 219.298 324.493 218.143 328.475C216.988 331.755 215.832 335.151 214.677 338.664C213.81 341.944 213.088 345.34 212.51 348.853C211.933 352.367 212.222 355.763 213.377 359.043C214.821 362.322 216.988 365.133 219.876 367.475C222.764 369.817 226.086 371.574 229.841 372.745C233.885 373.916 238.217 374.268 242.839 373.799C248.616 373.097 253.093 371.574 256.27 369.232C259.736 366.889 262.48 364.079 264.502 360.799C266.524 357.52 267.968 354.007 268.835 350.259C269.701 346.277 270.712 342.295 271.867 338.313C272.156 337.61 272.734 335.385 273.6 331.637C274.467 327.89 275.334 324.025 276.2 320.043C277.355 315.827 278.366 312.079 279.233 308.8C280.099 305.286 280.822 303.529 281.399 303.529H298.73C305.662 303.529 312.161 303.178 318.227 302.475C324.292 301.538 329.491 299.899 333.824 297.557C338.157 295.214 340.323 291.584 340.323 286.665C340.612 281.98 339.312 278.115 336.424 275.07C333.824 272.025 329.491 270.386 323.426 270.151C316.782 269.683 310.861 269.566 305.662 269.8C300.752 270.034 296.563 270.151 293.097 270.151L306.095 210.071C317.071 210.071 325.881 209.954 332.524 209.719C339.456 209.485 343.5 209.134 344.655 208.665C348.699 208.197 351.732 206.908 353.754 204.8C355.776 202.458 357.076 199.999 357.653 197.422C358.231 194.611 358.087 191.918 357.22 189.341C356.642 186.764 355.776 184.773 354.621 183.368C353.176 181.963 350.721 180.792 347.255 179.855C344.078 178.918 340.467 178.215 336.424 177.747C332.669 177.044 328.914 176.692 325.159 176.692C321.404 176.458 318.227 176.341 315.627 176.341C317.071 170.251 318.515 164.044 319.96 157.72C321.693 151.395 323.281 145.188 324.725 139.098ZM234.607 270.151H182.182L199.079 210.071H251.071L234.607 270.151Z" />
    </mask>
    <path fill-rule="evenodd" clip-rule="evenodd"
        d="M240.5 7.43378C225.03 -1.49786 205.97 -1.49787 190.5 7.43377L25.2927 102.816C9.82264 111.748 0.292694 128.254 0.292694 146.118V336.883C0.292694 354.746 9.82263 371.252 25.2927 380.184L190.5 475.566C205.97 484.498 225.03 484.498 240.5 475.566L405.707 380.184C421.177 371.252 430.707 354.746 430.707 336.883V146.118C430.707 128.254 421.177 111.748 405.707 102.816L240.5 7.43378ZM324.725 139.098C326.458 133.477 326.458 129.143 324.725 126.098C323.57 123.053 321.693 120.477 319.093 118.369C316.493 116.26 313.461 114.855 309.995 114.152C306.817 113.215 303.496 112.864 300.029 113.098C296.563 113.333 293.386 114.152 290.498 115.558C284.432 118.837 279.377 123.99 275.334 131.017C271.579 137.81 268.835 143.9 267.102 149.287C267.102 149.756 266.668 151.395 265.802 154.206C264.935 157.017 264.069 160.062 263.202 163.341C262.336 166.62 261.469 169.665 260.603 172.476L259.736 176.341H209.044C210.777 169.783 212.51 163.107 214.244 156.314C216.265 149.521 218.287 142.846 220.309 136.287C222.042 130.432 222.042 125.396 220.309 121.179C218.865 116.963 216.265 113.918 212.51 112.044C208.756 110.17 204.279 109.585 199.079 110.287C193.88 110.756 188.537 112.864 183.049 116.612C178.138 119.891 174.095 123.99 170.917 128.909C168.029 133.828 165.429 139.098 163.119 144.72C161.097 150.107 159.364 155.612 157.919 161.233C156.764 166.855 155.609 171.891 154.453 176.341H127.158C123.403 176.341 119.503 176.692 115.46 177.395C111.416 177.864 107.661 178.801 104.195 180.206C100.729 181.611 97.8404 183.602 95.5296 186.179C93.5078 188.521 92.4968 191.566 92.4968 195.314C92.4968 198.359 93.2189 200.936 94.6631 203.044C96.3962 204.917 98.5625 206.44 101.162 207.611C104.05 208.548 107.083 209.251 110.261 209.719C113.727 209.954 117.048 210.071 120.226 210.071H144.488L127.158 270.151H108.528C101.884 269.917 95.6741 269.8 89.8972 269.8C83.5427 270.034 79.0657 272.025 76.4661 275.773C74.1554 279.286 73 283.268 73 287.719C73 291.935 74.5886 295.214 77.7659 297.557C80.9431 299.665 84.8425 301.187 89.464 302.124C94.0854 303.061 98.8513 303.529 103.762 303.529H117.193C116.326 306.809 115.315 310.205 114.16 313.719L111.56 323.556C110.694 326.836 109.394 330.466 107.661 334.448C106.217 338.196 105.061 342.061 104.195 346.043C103.328 350.025 103.184 353.889 103.762 357.637C104.339 361.385 106.361 364.664 109.827 367.475C115.026 371.691 120.803 373.448 127.158 372.745C133.801 372.043 139.722 370.169 144.922 367.124C150.698 364.079 154.742 359.98 157.053 354.826C159.652 349.439 161.674 344.169 163.119 339.016C164.852 332.926 166.44 326.953 167.884 321.097L173.084 303.529H224.642C223.775 307.511 222.764 311.728 221.609 316.178C220.454 320.394 219.298 324.493 218.143 328.475C216.988 331.755 215.832 335.151 214.677 338.664C213.81 341.944 213.088 345.34 212.51 348.853C211.933 352.367 212.222 355.763 213.377 359.043C214.821 362.322 216.988 365.133 219.876 367.475C222.764 369.817 226.086 371.574 229.841 372.745C233.885 373.916 238.217 374.268 242.839 373.799C248.616 373.097 253.093 371.574 256.27 369.232C259.736 366.889 262.48 364.079 264.502 360.799C266.524 357.52 267.968 354.007 268.835 350.259C269.701 346.277 270.712 342.295 271.867 338.313C272.156 337.61 272.734 335.385 273.6 331.637C274.467 327.89 275.334 324.025 276.2 320.043C277.355 315.827 278.366 312.079 279.233 308.8C280.099 305.286 280.822 303.529 281.399 303.529H298.73C305.662 303.529 312.161 303.178 318.227 302.475C324.292 301.538 329.491 299.899 333.824 297.557C338.157 295.214 340.323 291.584 340.323 286.665C340.612 281.98 339.312 278.115 336.424 275.07C333.824 272.025 329.491 270.386 323.426 270.151C316.782 269.683 310.861 269.566 305.662 269.8C300.752 270.034 296.563 270.151 293.097 270.151L306.095 210.071C317.071 210.071 325.881 209.954 332.524 209.719C339.456 209.485 343.5 209.134 344.655 208.665C348.699 208.197 351.732 206.908 353.754 204.8C355.776 202.458 357.076 199.999 357.653 197.422C358.231 194.611 358.087 191.918 357.22 189.341C356.642 186.764 355.776 184.773 354.621 183.368C353.176 181.963 350.721 180.792 347.255 179.855C344.078 178.918 340.467 178.215 336.424 177.747C332.669 177.044 328.914 176.692 325.159 176.692C321.404 176.458 318.227 176.341 315.627 176.341C317.071 170.251 318.515 164.044 319.96 157.72C321.693 151.395 323.281 145.188 324.725 139.098ZM234.607 270.151H182.182L199.079 210.071H251.071L234.607 270.151Z"
        fill="#D69E2E" />
    <path
        d="M190.5 7.43377L216.5 52.4671L216.5 52.4671L190.5 7.43377ZM240.5 7.43378L214.5 52.4671L214.5 52.4671L240.5 7.43378ZM25.2927 102.816L51.2927 147.85L51.2927 147.85L25.2927 102.816ZM25.2927 380.184L-0.707321 425.217L-0.707315 425.217L25.2927 380.184ZM190.5 475.566L216.5 430.533L216.5 430.533L190.5 475.566ZM240.5 475.566L214.5 430.533L214.5 430.533L240.5 475.566ZM405.707 380.184L379.707 335.15L379.707 335.15L405.707 380.184ZM405.707 102.816L379.707 147.85L379.707 147.85L405.707 102.816ZM324.725 126.098L276.107 144.545L277.538 148.315L279.532 151.819L324.725 126.098ZM324.725 139.098L275.033 123.779L274.526 125.424L274.129 127.099L324.725 139.098ZM319.093 118.369L286.34 158.757L286.34 158.757L319.093 118.369ZM309.995 114.152L295.287 164.029L297.451 164.667L299.663 165.116L309.995 114.152ZM290.498 115.558L267.747 68.7989L266.746 69.2856L265.768 69.8146L290.498 115.558ZM275.334 131.017L230.264 105.081L230.04 105.468L229.824 105.86L275.334 131.017ZM267.102 149.287L217.6 133.363L215.102 141.129V149.287H267.102ZM263.202 163.341L212.928 150.057L212.928 150.057L263.202 163.341ZM260.603 172.476L210.91 157.157L210.309 159.108L209.862 161.1L260.603 172.476ZM259.736 176.341V228.341H301.368L310.476 187.718L259.736 176.341ZM209.044 176.341L158.77 163.056L141.519 228.341H209.044V176.341ZM214.244 156.314L164.405 141.479L164.111 142.464L163.858 143.459L214.244 156.314ZM220.309 136.287L270.001 151.607L270.088 151.326L270.171 151.044L220.309 136.287ZM220.309 121.179L171.115 138.03L171.621 139.506L172.214 140.949L220.309 121.179ZM212.51 112.044L189.291 158.572L189.291 158.572L212.51 112.044ZM199.079 110.287L203.746 162.078L204.898 161.974L206.044 161.819L199.079 110.287ZM183.049 116.612L211.928 159.855L212.152 159.706L212.374 159.554L183.049 116.612ZM170.917 128.909L127.237 100.695L126.637 101.624L126.077 102.578L170.917 128.909ZM163.119 144.72L115.023 124.95L114.717 125.695L114.434 126.448L163.119 144.72ZM157.919 161.233L107.555 148.294L107.239 149.522L106.984 150.765L157.919 161.233ZM154.453 176.341V228.341H194.677L204.785 189.408L154.453 176.341ZM115.46 177.395L121.444 229.05L122.909 228.88L124.362 228.627L115.46 177.395ZM104.195 180.206L123.734 228.395L123.734 228.395L104.195 180.206ZM95.5296 186.179L56.8174 151.461L56.4884 151.827L56.1663 152.201L95.5296 186.179ZM94.6631 203.044L51.7645 232.433L53.9099 235.564L56.4873 238.351L94.6631 203.044ZM101.162 207.611L79.8027 255.022L82.4038 256.194L85.1175 257.074L101.162 207.611ZM110.261 209.719L102.676 261.163L104.706 261.463L106.754 261.601L110.261 209.719ZM144.488 210.071L194.451 224.483L213.608 158.071H144.488V210.071ZM127.158 270.151V322.151H166.278L177.121 284.563L127.158 270.151ZM108.528 270.151L106.695 322.119L107.611 322.151H108.528V270.151ZM89.8972 269.8V217.8H88.9392L87.9819 217.835L89.8972 269.8ZM76.4661 275.773L33.7387 246.136L33.3728 246.663L33.0201 247.199L76.4661 275.773ZM77.7659 297.557L46.9094 339.412L47.9448 340.175L49.0167 340.886L77.7659 297.557ZM89.464 302.124L99.7962 251.161L99.7959 251.161L89.464 302.124ZM117.193 303.529L167.467 316.814L184.718 251.529H117.193V303.529ZM114.16 313.719L64.7622 297.475L64.2799 298.941L63.8855 300.434L114.16 313.719ZM111.56 323.556L161.835 336.841L161.835 336.841L111.56 323.556ZM107.661 334.448L59.9811 313.697L59.5382 314.714L59.1391 315.75L107.661 334.448ZM103.762 357.637L52.3686 365.559L52.3686 365.559L103.762 357.637ZM109.827 367.475L77.0745 407.864L77.0745 407.864L109.827 367.475ZM127.158 372.745L121.688 321.034L121.565 321.047L121.442 321.06L127.158 372.745ZM144.922 367.124L120.674 321.123L119.645 321.665L118.642 322.253L144.922 367.124ZM157.053 354.826L110.22 332.228L109.903 332.885L109.605 333.55L157.053 354.826ZM163.119 339.016L113.104 324.783L113.076 324.883L113.048 324.983L163.119 339.016ZM167.884 321.097L118.022 306.34L117.683 307.485L117.397 308.645L167.884 321.097ZM173.084 303.529V251.529H134.244L123.221 288.773L173.084 303.529ZM224.642 303.529L275.453 314.587L289.175 251.529H224.642V303.529ZM221.609 316.178L271.76 329.921L271.853 329.583L271.941 329.244L221.609 316.178ZM218.143 328.475L267.188 345.755L267.675 344.373L268.083 342.965L218.143 328.475ZM214.677 338.664L165.279 322.421L164.797 323.887L164.402 325.38L214.677 338.664ZM213.377 359.043L164.332 376.323L164.99 378.19L165.788 380.001L213.377 359.043ZM219.876 367.475L252.629 327.086L252.629 327.086L219.876 367.475ZM229.841 372.745L214.358 422.387L214.865 422.545L215.375 422.693L229.841 372.745ZM242.839 373.799L248.083 425.534L248.601 425.482L249.118 425.419L242.839 373.799ZM256.27 369.232L227.154 326.147L226.271 326.744L225.414 327.376L256.27 369.232ZM264.502 360.799L308.765 388.091L308.765 388.09L264.502 360.799ZM268.835 350.259L319.498 361.973L319.574 361.645L319.645 361.316L268.835 350.259ZM271.867 338.313L223.772 318.543L222.707 321.133L221.927 323.823L271.867 338.313ZM273.6 331.637L324.264 343.352L324.264 343.351L273.6 331.637ZM276.2 320.043L226.049 306.3L225.683 307.634L225.389 308.986L276.2 320.043ZM279.233 308.8L329.507 322.084L329.617 321.669L329.72 321.252L279.233 308.8ZM318.227 302.475L324.211 354.13L325.19 354.016L326.164 353.866L318.227 302.475ZM333.824 297.557L309.094 251.813L309.094 251.813L333.824 297.557ZM340.323 286.665L288.421 283.465L288.323 285.063V286.665H340.323ZM336.424 275.07L296.875 308.833L297.759 309.869L298.697 310.857L336.424 275.07ZM323.426 270.151L319.768 322.023L320.593 322.081L321.419 322.113L323.426 270.151ZM305.662 269.8L303.322 217.853L303.253 217.856L303.184 217.859L305.662 269.8ZM293.097 270.151L242.273 259.156L228.645 322.151H293.097V270.151ZM306.095 210.071V158.071H264.142L255.271 199.075L306.095 210.071ZM332.524 209.719L330.768 157.749L330.73 157.75L330.692 157.752L332.524 209.719ZM344.655 208.665L338.671 157.011L331.659 157.823L325.116 160.476L344.655 208.665ZM353.754 204.8L391.283 240.795L392.227 239.811L393.117 238.779L353.754 204.8ZM357.653 197.422L408.394 208.799L408.495 208.346L408.589 207.891L357.653 197.422ZM357.22 189.341L306.48 200.717L307.071 203.355L307.933 205.917L357.22 189.341ZM354.621 183.368L394.789 150.345L392.955 148.115L390.886 146.102L354.621 183.368ZM347.255 179.855L332.547 229.731L333.115 229.899L333.686 230.053L347.255 179.855ZM336.424 177.747L326.858 228.859L328.639 229.193L330.439 229.401L336.424 177.747ZM325.159 176.692L321.921 228.592L323.538 228.692H325.159V176.692ZM315.627 176.341L265.03 164.343L249.854 228.341H315.627V176.341ZM319.96 157.72L269.809 143.977L269.513 145.054L269.265 146.143L319.96 157.72ZM182.182 270.151L132.124 256.073L113.54 322.151H182.182V270.151ZM234.607 270.151V322.151H274.274L284.758 283.894L234.607 270.151ZM199.079 210.071V158.071H159.687L149.021 195.992L199.079 210.071ZM251.071 210.071L301.222 223.814L319.238 158.071H251.071V210.071ZM216.5 52.4671C215.881 52.8244 215.119 52.8244 214.5 52.4671L266.5 -37.5995C234.941 -55.8201 196.059 -55.8201 164.5 -37.5995L216.5 52.4671ZM51.2927 147.85L216.5 52.4671L164.5 -37.5995L-0.707309 57.7829L51.2927 147.85ZM52.2927 146.118C52.2927 146.832 51.9115 147.492 51.2927 147.85L-0.707294 57.7829C-32.2662 76.0035 -51.7073 109.676 -51.7073 146.118H52.2927ZM52.2927 336.883V146.118H-51.7073V336.883H52.2927ZM51.2927 335.15C51.9115 335.508 52.2927 336.168 52.2927 336.883H-51.7073C-51.7073 373.324 -32.2662 406.997 -0.707321 425.217L51.2927 335.15ZM216.5 430.533L51.2927 335.15L-0.707315 425.217L164.5 520.6L216.5 430.533ZM214.5 430.533C215.119 430.176 215.881 430.176 216.5 430.533L164.5 520.6C196.059 538.82 234.941 538.82 266.5 520.6L214.5 430.533ZM379.707 335.15L214.5 430.533L266.5 520.6L431.707 425.217L379.707 335.15ZM378.707 336.883C378.707 336.168 379.089 335.508 379.707 335.15L431.707 425.217C463.266 406.997 482.707 373.324 482.707 336.883H378.707ZM378.707 146.118V336.883H482.707V146.118H378.707ZM379.707 147.85C379.089 147.492 378.707 146.832 378.707 146.118H482.707C482.707 109.676 463.266 76.0035 431.707 57.7829L379.707 147.85ZM214.5 52.4671L379.707 147.85L431.707 57.7829L266.5 -37.5995L214.5 52.4671ZM279.532 151.819C274.997 143.85 274.025 136.369 274.025 131.632C274.025 127.126 274.877 124.284 275.033 123.779L374.418 154.417C377.647 143.941 382.308 122.146 369.919 100.377L279.532 151.819ZM286.34 158.757C282.013 155.248 278.303 150.332 276.107 144.545L373.343 107.651C368.837 95.7743 361.372 85.7049 351.846 77.9797L286.34 158.757ZM299.663 165.116C295.392 164.25 290.622 162.23 286.34 158.757L351.846 77.9799C342.364 70.2908 331.529 65.4603 320.326 63.1891L299.663 165.116ZM303.536 164.98C301.162 165.14 298.298 164.917 295.287 164.029L324.702 64.2757C315.336 61.5137 305.829 60.5878 296.523 61.2166L303.536 164.98ZM313.249 162.317C309.636 164.074 306.206 164.8 303.536 164.98L296.523 61.2166C286.921 61.8655 277.136 64.2305 267.747 68.7989L313.249 162.317ZM320.404 156.953C320.496 156.794 320.186 157.372 319.28 158.295C318.337 159.256 316.979 160.354 315.228 161.301L265.768 69.8146C249.822 78.4355 238.262 91.1822 230.264 105.081L320.404 156.953ZM316.603 165.211C317.008 163.954 318.161 161.026 320.843 156.174L229.824 105.86C224.996 114.594 220.661 123.846 217.6 133.363L316.603 165.211ZM315.494 169.525C316.008 167.857 316.57 165.972 317.051 164.153C317.283 163.274 317.63 161.91 317.956 160.327C318.047 159.884 319.102 155.159 319.102 149.287H215.102C215.102 147.404 215.206 145.86 215.297 144.826C215.392 143.75 215.506 142.851 215.6 142.193C215.782 140.913 215.975 139.924 216.085 139.39C216.302 138.333 216.487 137.642 216.502 137.584C216.55 137.404 216.462 137.745 216.109 138.887L315.494 169.525ZM313.477 176.626C314.189 173.928 314.864 171.57 315.494 169.525L216.109 138.887C215.007 142.464 213.948 146.195 212.928 150.057L313.477 176.626ZM310.295 187.796C311.398 184.218 312.456 180.487 313.477 176.626L212.928 150.057C212.215 152.754 211.541 155.113 210.91 157.157L310.295 187.796ZM310.476 187.718L311.343 183.853L209.862 161.1L208.996 164.964L310.476 187.718ZM209.044 228.341H259.736V124.341H209.044V228.341ZM163.858 143.459C162.16 150.113 160.464 156.646 158.77 163.056L259.319 189.626C261.091 182.92 262.861 176.101 264.63 169.169L163.858 143.459ZM170.617 120.968C168.544 127.693 166.473 134.53 164.405 141.479L264.083 171.149C266.058 164.513 268.031 157.999 270.001 151.607L170.617 120.968ZM172.214 140.949C168.113 130.972 169.958 123.184 170.447 121.53L270.171 151.044C274.127 137.679 275.972 119.819 268.405 101.41L172.214 140.949ZM189.291 158.572C185.231 156.546 181.177 153.536 177.728 149.496C174.322 145.506 172.275 141.417 171.115 138.03L269.503 104.328C263.937 88.0793 252.518 73.8938 235.73 65.5161L189.291 158.572ZM206.044 161.819C203.503 162.162 196.965 162.402 189.291 158.572L235.73 65.5162C220.546 57.9389 205.054 57.0072 192.115 58.756L206.044 161.819ZM212.374 159.554C212.492 159.473 209.483 161.561 203.746 162.078L194.413 58.4973C178.278 59.9512 164.581 66.2548 153.724 73.6695L212.374 159.554ZM214.597 157.123C214.288 157.602 213.871 158.138 213.351 158.665C212.833 159.19 212.332 159.585 211.928 159.855L154.169 73.3684C143.401 80.5597 134.302 89.7566 127.237 100.695L214.597 157.123ZM211.214 164.489C212.655 160.982 214.185 157.919 215.758 155.24L126.077 102.578C121.873 109.737 118.203 117.214 115.023 124.95L211.214 164.489ZM208.284 174.172C209.268 170.341 210.442 166.617 211.803 162.991L114.434 126.448C111.751 133.597 109.459 140.882 107.555 148.294L208.284 174.172ZM204.785 189.408C206.21 183.917 207.562 177.991 208.855 171.702L106.984 150.765C105.966 155.718 105.007 159.865 104.122 163.274L204.785 189.408ZM127.158 228.341H154.453V124.341H127.158V228.341ZM124.362 228.627C125.735 228.389 126.648 228.341 127.158 228.341V124.341C120.158 124.341 113.272 124.996 106.557 126.163L124.362 228.627ZM123.734 228.395C122.494 228.898 121.646 229.026 121.444 229.05L109.476 125.741C101.186 126.701 92.828 128.703 84.6554 132.017L123.734 228.395ZM134.242 220.897C130.852 224.677 126.998 227.072 123.734 228.395L84.6558 132.017C74.4597 136.151 64.8287 142.528 56.8174 151.461L134.242 220.897ZM144.497 195.314C144.497 201.29 142.657 211.163 134.893 220.157L56.1663 152.201C44.3589 165.879 40.4968 181.842 40.4968 195.314H144.497ZM137.562 173.655C143.108 181.751 144.497 189.919 144.497 195.314H40.4968C40.4968 206.799 43.3298 220.12 51.7645 232.433L137.562 173.655ZM122.521 160.2C125.538 161.559 129.31 163.921 132.839 167.736L56.4873 238.351C63.4821 245.914 71.5874 251.321 79.8027 255.022L122.521 160.2ZM117.846 158.275C117.375 158.206 117.182 158.14 117.207 158.148L85.1175 257.074C90.9188 258.956 96.7921 260.296 102.676 261.163L117.846 158.275ZM120.226 158.071C118.32 158.071 116.172 158 113.767 157.838L106.754 261.601C111.281 261.907 115.777 262.071 120.226 262.071V158.071ZM144.488 158.071H120.226V262.071H144.488V158.071ZM177.121 284.563L194.451 224.483L94.5254 195.659L77.1949 255.739L177.121 284.563ZM108.528 322.151H127.158V218.151H108.528V322.151ZM89.8972 321.8C94.9805 321.8 100.574 321.903 106.695 322.119L110.36 218.184C103.195 217.931 96.3677 217.8 89.8972 217.8V321.8ZM119.194 305.41C114.663 311.942 108.694 316.407 102.903 318.982C97.5696 321.354 93.3852 321.707 91.8126 321.765L87.9819 217.835C72.1468 218.419 48.9969 224.138 33.7387 246.136L119.194 305.41ZM125 287.719C125 292.801 123.514 298.869 119.912 304.346L33.0201 247.199C24.7966 259.703 21 273.735 21 287.719H125ZM108.622 255.701C113.246 259.11 117.803 264.093 120.989 270.669C124.118 277.128 125 283.206 125 287.719H21C21 307.14 29.4136 326.514 46.9094 339.412L108.622 255.701ZM99.7959 251.161C100.242 251.251 102.951 251.862 106.515 254.227L49.0167 340.886C58.9352 347.467 69.4429 351.123 79.1321 353.087L99.7959 251.161ZM103.762 251.529C102.178 251.529 100.879 251.38 99.7962 251.161L79.1318 353.087C87.2916 354.742 95.5245 355.529 103.762 355.529V251.529ZM117.193 251.529H103.762V355.529H117.193V251.529ZM163.558 329.962C165.006 325.558 166.315 321.173 167.467 316.814L66.9183 290.245C66.337 292.445 65.6246 294.852 64.7622 297.475L163.558 329.962ZM161.835 336.841L164.434 327.003L63.8855 300.434L61.2859 310.272L161.835 336.841ZM155.341 355.2C157.851 349.432 160.138 343.263 161.835 336.841L61.286 310.272C61.2498 310.408 60.9371 311.5 59.9811 313.697L155.341 355.2ZM155.006 357.1C155.314 355.682 155.71 354.373 156.183 353.146L59.1391 315.75C56.7234 322.018 54.8085 328.44 53.3841 334.986L155.006 357.1ZM155.155 349.715C155.62 352.734 155.394 355.314 155.006 357.1L53.3841 334.986C51.2623 344.736 50.748 355.045 52.3686 365.559L155.155 349.715ZM142.58 327.086C144.687 328.795 147.469 331.554 149.974 335.616C152.551 339.795 154.368 344.61 155.155 349.715L52.3686 365.559C55.2536 384.276 65.4614 398.446 77.0745 407.864L142.58 327.086ZM121.442 321.06C124.854 320.683 128.94 320.912 133.189 322.204C137.387 323.481 140.531 325.425 142.58 327.086L77.0745 407.864C92.5044 420.376 111.993 426.739 132.873 424.43L121.442 321.06ZM118.642 322.253C119.488 321.758 120.272 321.432 120.892 321.236C121.497 321.045 121.8 321.022 121.688 321.034L132.628 424.457C145.811 423.062 158.968 419.159 171.201 411.994L118.642 322.253ZM109.605 333.55C111.039 330.352 113.019 327.527 115.269 325.247C117.456 323.029 119.467 321.759 120.674 321.123L169.169 413.124C183.544 405.547 196.713 393.47 204.501 376.103L109.605 333.55ZM113.048 324.983C112.519 326.871 111.643 329.278 110.22 332.228L203.886 377.425C207.662 369.6 210.83 361.467 213.189 353.049L113.048 324.983ZM117.397 308.645C116.107 313.876 114.677 319.255 113.104 324.783L213.133 353.248C215.026 346.596 216.773 340.029 218.372 333.549L117.397 308.645ZM123.221 288.773L118.022 306.34L217.747 335.854L222.946 318.286L123.221 288.773ZM224.642 251.529H173.084V355.529H224.642V251.529ZM271.941 329.244C273.247 324.21 274.423 319.32 275.453 314.587L173.831 292.472C173.128 295.703 172.281 299.245 171.277 303.112L271.941 329.244ZM268.083 342.965C269.314 338.722 270.54 334.373 271.76 329.921L171.458 302.435C170.367 306.415 169.282 310.265 168.203 313.985L268.083 342.965ZM264.075 354.908C265.123 351.72 266.161 348.669 267.188 345.755L169.098 311.196C167.814 314.84 166.541 318.582 165.279 322.421L264.075 354.908ZM263.822 357.29C264.144 355.328 264.527 353.553 264.951 351.949L164.402 325.38C163.093 330.334 162.032 335.352 161.199 340.417L263.822 357.29ZM262.422 341.763C264.244 346.934 264.627 352.394 263.822 357.29L161.199 340.417C159.239 352.34 160.199 364.593 164.332 376.323L262.422 341.763ZM252.629 327.086C255.908 329.746 258.951 333.509 260.966 338.084L165.788 380.001C170.691 391.135 178.067 400.52 187.123 407.864L252.629 327.086ZM245.324 323.104C247.493 323.78 250.108 325.042 252.629 327.086L187.123 407.864C195.421 414.593 204.68 419.368 214.358 422.387L245.324 323.104ZM237.595 322.064C238.911 321.931 241.325 321.934 244.307 322.798L215.375 422.693C226.444 425.898 237.523 426.605 248.083 425.534L237.595 322.064ZM225.414 327.376C228.876 324.824 231.939 323.528 233.787 322.899C235.616 322.277 236.668 322.167 236.56 322.18L249.118 425.419C259.867 424.111 274.109 420.684 287.126 411.087L225.414 327.376ZM220.239 333.508C222.412 329.984 225.04 327.576 227.154 326.147L285.386 412.316C294.433 406.202 302.548 398.173 308.765 388.091L220.239 333.508ZM218.171 338.545C218.58 336.778 219.3 335.032 220.239 333.508L308.765 388.09C313.748 380.009 317.357 371.235 319.498 361.973L218.171 338.545ZM221.927 323.823C220.448 328.919 219.146 334.046 218.024 339.202L319.645 361.316C320.256 358.508 320.976 355.671 321.808 352.803L221.927 323.823ZM222.937 319.923C222.75 320.731 222.592 321.399 222.461 321.942C222.328 322.493 222.238 322.851 222.186 323.051C222.161 323.146 222.154 323.171 222.163 323.137C222.171 323.109 222.209 322.969 222.276 322.744C222.337 322.537 222.466 322.109 222.657 321.537C222.755 321.242 222.89 320.848 223.06 320.382C223.225 319.927 223.463 319.295 223.772 318.543L319.963 358.083C321.681 353.902 322.716 349.695 322.849 349.184C323.306 347.424 323.785 345.421 324.264 343.352L222.937 319.923ZM225.389 308.986C224.568 312.761 223.75 316.407 222.937 319.924L324.264 343.351C325.184 339.373 326.099 335.289 327.011 331.1L225.389 308.986ZM228.958 295.515C228.142 298.605 227.174 302.195 226.049 306.3L326.351 333.786C327.537 329.458 328.591 325.553 329.507 322.084L228.958 295.515ZM281.399 251.529C254.672 251.529 240.926 270.511 239.137 272.93C235.222 278.222 233.131 283.127 232.329 285.078C230.475 289.588 229.349 293.9 228.746 296.348L329.72 321.252C329.983 320.186 329.652 321.863 328.52 324.616C328.079 325.689 326.331 329.935 322.741 334.787C320.905 337.269 317.271 341.725 311.435 345.901C305.376 350.236 295.076 355.529 281.399 355.529V251.529ZM298.73 251.529H281.399V355.529H298.73V251.529ZM312.242 250.821C308.407 251.265 303.924 251.529 298.73 251.529V355.529C307.4 355.529 315.914 355.091 324.211 354.13L312.242 250.821ZM309.094 251.813C310.118 251.26 310.819 251.019 311.035 250.951C311.244 250.885 311.032 250.97 310.289 251.085L326.164 353.866C336.72 352.236 347.88 349.07 358.554 343.3L309.094 251.813ZM288.323 286.665C288.323 281.297 289.581 273.911 294.043 266.432C298.503 258.957 304.397 254.353 309.094 251.813L358.554 343.3C367.584 338.418 376.727 330.827 383.353 319.721C389.982 308.612 392.323 296.951 392.323 286.665H288.323ZM298.697 310.857C295.093 307.058 292.11 302.277 290.277 296.828C288.49 291.513 288.215 286.82 288.421 283.465L392.224 289.865C393.285 272.665 388.196 254.09 374.15 239.284L298.697 310.857ZM321.419 322.113C320.439 322.075 307.648 321.452 296.875 308.833L375.972 241.307C360 222.599 338.543 218.696 325.432 218.19L321.419 322.113ZM308.002 321.747C310.741 321.624 314.6 321.658 319.768 322.023L327.083 218.28C318.965 217.708 310.982 217.508 303.322 217.853L308.002 321.747ZM293.097 322.151C297.651 322.151 302.714 322 308.14 321.741L303.184 217.859C298.789 218.069 295.476 218.151 293.097 218.151V322.151ZM255.271 199.075L242.273 259.156L343.922 281.147L356.919 221.066L255.271 199.075ZM330.692 157.752C324.922 157.955 316.797 158.071 306.095 158.071V262.071C317.345 262.071 326.839 261.952 334.356 261.687L330.692 157.752ZM325.116 160.476C326.901 159.752 328.418 159.257 329.496 158.935C330.604 158.603 331.543 158.366 332.243 158.202C333.6 157.885 334.634 157.71 335.148 157.629C336.148 157.472 336.631 157.443 336.255 157.475C335.562 157.535 333.86 157.644 330.768 157.749L334.28 261.69C338.12 261.56 341.906 261.376 345.257 261.085C346.903 260.942 349.047 260.723 351.347 260.36C352.588 260.164 358.048 259.347 364.195 256.855L325.116 160.476ZM316.225 168.806C325.343 159.3 335.379 157.392 338.671 157.011L350.639 260.32C362.02 259.001 378.121 254.517 391.283 240.795L316.225 168.806ZM306.913 186.045C308.507 178.937 311.78 173.846 314.391 170.822L393.117 238.779C399.771 231.07 405.644 221.06 408.394 208.799L306.913 186.045ZM307.933 205.917C305.705 199.293 305.552 192.625 306.718 186.953L408.589 207.891C410.91 196.598 410.468 184.542 406.507 172.765L307.933 205.917ZM314.452 216.391C308.637 209.318 306.937 202.757 306.48 200.717L407.96 177.965C406.348 170.772 402.914 160.229 394.789 150.345L314.452 216.391ZM333.686 230.053C333.286 229.945 331.648 229.485 329.308 228.369C327.084 227.309 322.843 225.003 318.355 220.635L390.886 146.102C379.891 135.401 367.098 131.352 360.824 129.656L333.686 230.053ZM330.439 229.401C332.171 229.602 332.78 229.8 332.547 229.731L361.963 129.978C355.375 128.035 348.763 126.828 342.408 126.092L330.439 229.401ZM325.159 228.692C325.649 228.692 326.203 228.737 326.858 228.859L345.989 126.634C339.134 125.351 332.178 124.692 325.159 124.692V228.692ZM315.627 228.341C316.788 228.341 318.814 228.398 321.921 228.592L328.396 124.793C323.994 124.519 319.665 124.341 315.627 124.341V228.341ZM269.265 146.143C267.851 152.331 266.44 158.398 265.03 164.343L366.224 188.34C367.702 182.104 369.179 175.756 370.655 169.296L269.265 146.143ZM274.129 127.099C272.829 132.579 271.39 138.204 269.809 143.977L370.111 171.463C371.995 164.587 373.733 157.797 375.322 151.097L274.129 127.099ZM182.182 322.151H234.607V218.151H182.182V322.151ZM149.021 195.992L132.124 256.073L232.24 284.23L249.137 224.149L149.021 195.992ZM251.071 158.071H199.079V262.071H251.071V158.071ZM284.758 283.894L301.222 223.814L200.92 196.328L184.456 256.408L284.758 283.894Z"
        fill="#D69E2E" mask="url(#path-1-inside-1_6_6)" />
</svg>