<svg width="515" height="515" viewBox="0 0 515 515" fill="none" xmlns="http://www.w3.org/2000/svg">
<circle cx="257.316" cy="257.316" r="227.316" stroke="#5C5C5C" stroke-width="60"/>
<path d="M359.71 148.123C361.34 150.983 361.34 155.054 359.71 160.335C358.352 166.056 356.858 171.887 355.229 177.827C353.871 183.768 352.513 189.599 351.154 195.32C353.599 195.32 356.587 195.43 360.118 195.65C363.649 195.65 367.18 195.981 370.711 196.641C374.513 197.081 377.908 197.741 380.896 198.621C384.155 199.501 386.464 200.601 387.822 201.922C388.909 203.242 389.723 205.112 390.267 207.532C391.081 209.953 391.217 212.483 390.674 215.124C390.131 217.544 388.909 219.855 387.007 222.055C385.106 224.035 382.254 225.245 378.451 225.685C377.365 226.126 373.562 226.456 367.044 226.676C360.797 226.896 352.513 227.006 342.191 227.006L329.969 283.445C333.228 283.445 337.166 283.335 341.784 283.115C346.673 282.895 352.241 283.005 358.488 283.445C364.192 283.665 368.266 285.205 370.711 288.066C373.427 290.926 374.649 294.557 374.377 298.958C374.377 303.578 372.34 306.989 368.266 309.189C364.192 311.39 359.303 312.93 353.599 313.81C347.895 314.47 341.784 314.8 335.265 314.8C329.018 314.8 323.586 314.8 318.968 314.8C318.425 314.8 317.746 316.451 316.931 319.751C316.116 322.832 315.166 326.352 314.079 330.313C313.265 334.054 312.45 337.684 311.635 341.205C310.82 344.725 310.277 346.816 310.005 347.476C308.919 351.216 307.968 354.957 307.153 358.698C306.338 362.218 304.98 365.519 303.079 368.599C301.178 371.68 298.597 374.32 295.338 376.521C292.35 378.721 288.14 380.151 282.708 380.811C278.362 381.251 274.288 380.921 270.486 379.821C266.955 378.721 263.831 377.071 261.115 374.87C258.399 372.67 256.362 370.03 255.004 366.949C253.917 363.869 253.646 360.678 254.189 357.377C254.732 354.077 255.411 350.886 256.226 347.806C257.312 344.505 258.399 341.315 259.485 338.234C260.572 334.494 261.658 330.643 262.745 326.682C263.831 322.502 264.782 318.541 265.597 314.8H217.114C215.484 320.301 213.854 325.802 212.225 331.303C210.867 336.804 209.373 342.415 207.743 348.136C206.385 352.977 204.484 357.928 202.039 362.988C199.866 367.829 196.064 371.68 190.632 374.54C185.742 377.401 180.174 379.161 173.927 379.821C167.952 380.481 162.52 378.831 157.631 374.87C154.371 372.23 152.47 369.149 151.927 365.629C151.384 362.108 151.519 358.478 152.334 354.737C153.149 350.996 154.235 347.366 155.593 343.845C157.223 340.105 158.445 336.694 159.26 333.614C160.075 330.533 160.89 327.452 161.705 324.372C162.791 321.071 163.742 317.881 164.557 314.8C161.026 314.8 156.816 314.8 151.927 314.8C147.309 314.8 142.828 314.36 138.482 313.48C134.136 312.6 130.469 311.17 127.482 309.189C124.494 306.989 123 303.909 123 299.948C123 295.767 124.086 292.027 126.259 288.726C128.704 285.205 132.914 283.335 138.889 283.115C144.322 283.115 150.161 283.225 156.408 283.445C162.655 283.445 168.495 283.445 173.927 283.445L190.224 227.006H167.409C164.421 227.006 161.297 226.896 158.038 226.676C155.05 226.236 152.198 225.575 149.482 224.695C147.038 223.595 145.001 222.165 143.371 220.405C142.013 218.424 141.334 216.004 141.334 213.143C141.334 209.623 142.284 206.762 144.186 204.562C146.359 202.142 149.075 200.271 152.334 198.951C155.593 197.631 159.124 196.751 162.927 196.311C166.73 195.65 170.396 195.32 173.927 195.32H199.595C200.681 191.14 201.768 186.409 202.854 181.128C204.212 175.847 205.842 170.676 207.743 165.615C209.916 160.335 212.36 155.384 215.077 150.763C218.064 146.142 221.867 142.292 226.484 139.211C231.645 135.69 236.67 133.71 241.559 133.27C246.448 132.61 250.658 133.16 254.189 134.92C257.72 136.681 260.164 139.541 261.522 143.502C263.152 147.462 263.152 152.193 261.522 157.694C259.621 163.855 257.72 170.126 255.818 176.507C254.189 182.888 252.559 189.159 250.929 195.32H298.597C298.597 195.32 298.869 194.11 299.412 191.69C300.227 189.049 301.042 186.189 301.857 183.108C302.672 180.028 303.486 177.167 304.301 174.527C305.116 171.887 305.524 170.346 305.524 169.906C307.153 164.845 309.734 159.124 313.265 152.743C317.067 146.142 321.82 141.301 327.524 138.221C330.24 136.901 333.228 136.131 336.487 135.91C339.747 135.69 342.87 136.021 345.858 136.901C349.117 137.561 351.969 138.881 354.414 140.861C356.858 142.842 358.624 145.262 359.71 148.123ZM225.67 283.445H274.967L290.449 227.006H241.559L225.67 283.445Z" fill="url(#paint0_linear_2_6)"/>
<defs>
<linearGradient id="paint0_linear_2_6" x1="362.019" y1="275.507" x2="53.7388" y2="275.507" gradientUnits="userSpaceOnUse">
<stop stop-color="#D69E2E"/>
<stop offset="0.380208" stop-color="#D53F8C"/>
<stop offset="0.713542" stop-color="#3182CE"/>
</linearGradient>
</defs>
</svg>
