<svg width="1280" height="1060" viewBox="0 0 1280 1060" fill="none" xmlns="http://www.w3.org/2000/svg">
<path d="M262.833 254C262.833 268.728 274.772 280.667 289.5 280.667C304.228 280.667 316.167 268.728 316.167 254C316.167 239.272 304.228 227.333 289.5 227.333C274.772 227.333 262.833 239.272 262.833 254ZM1020.5 991L970.5 962.132V1019.87L1020.5 991ZM153 802.919C153 800.157 150.761 797.919 148 797.919C145.239 797.919 143 800.157 143 802.919H153ZM143 802.919C143 805.68 145.239 807.919 148 807.919C150.761 807.919 153 805.68 153 802.919H143ZM1187 434.419C1187 431.657 1184.76 429.419 1182 429.419C1179.24 429.419 1177 431.657 1177 434.419H1187ZM1177 434.419C1177 437.18 1179.24 439.419 1182 439.419C1184.76 439.419 1187 437.18 1187 434.419H1177ZM299.39 259C302.151 259 304.39 256.761 304.39 254C304.39 251.239 302.151 249 299.39 249V259ZM319.17 249C316.409 249 314.17 251.239 314.17 254C314.17 256.761 316.409 259 319.17 259V249ZM338.95 259C341.712 259 343.95 256.761 343.95 254C343.95 251.239 341.712 249 338.95 249V259ZM358.73 249C355.969 249 353.73 251.239 353.73 254C353.73 256.761 355.969 259 358.73 259V249ZM378.51 259C381.272 259 383.51 256.761 383.51 254C383.51 251.239 381.272 249 378.51 249V259ZM398.29 249C395.529 249 393.29 251.239 393.29 254C393.29 256.761 395.529 259 398.29 259V249ZM418.07 259C420.832 259 423.07 256.761 423.07 254C423.07 251.239 420.832 249 418.07 249V259ZM437.85 249C435.089 249 432.85 251.239 432.85 254C432.85 256.761 435.089 259 437.85 259V249ZM457.63 259C460.392 259 462.63 256.761 462.63 254C462.63 251.239 460.392 249 457.63 249V259ZM477.41 249C474.649 249 472.41 251.239 472.41 254C472.41 256.761 474.649 259 477.41 259V249ZM497.19 259C499.952 259 502.19 256.761 502.19 254C502.19 251.239 499.952 249 497.19 249V259ZM516.97 249C514.209 249 511.97 251.239 511.97 254C511.97 256.761 514.209 259 516.97 259V249ZM536.751 259C539.512 259 541.751 256.761 541.751 254C541.751 251.239 539.512 249 536.751 249V259ZM556.531 249C553.769 249 551.531 251.239 551.531 254C551.531 256.761 553.769 259 556.531 259V249ZM576.311 259C579.072 259 581.311 256.761 581.311 254C581.311 251.239 579.072 249 576.311 249V259ZM596.091 249C593.329 249 591.091 251.239 591.091 254C591.091 256.761 593.329 259 596.091 259V249ZM615.871 259C618.632 259 620.871 256.761 620.871 254C620.871 251.239 618.632 249 615.871 249V259ZM635.651 249C632.889 249 630.651 251.239 630.651 254C630.651 256.761 632.889 259 635.651 259V249ZM655.431 259C658.192 259 660.431 256.761 660.431 254C660.431 251.239 658.192 249 655.431 249V259ZM675.211 249C672.449 249 670.211 251.239 670.211 254C670.211 256.761 672.449 259 675.211 259V249ZM694.991 259C697.752 259 699.991 256.761 699.991 254C699.991 251.239 697.752 249 694.991 249V259ZM714.771 249C712.009 249 709.771 251.239 709.771 254C709.771 256.761 712.009 259 714.771 259V249ZM734.551 259C737.312 259 739.551 256.761 739.551 254C739.551 251.239 737.312 249 734.551 249V259ZM754.331 249C751.569 249 749.331 251.239 749.331 254C749.331 256.761 751.569 259 754.331 259V249ZM774.111 259C776.872 259 779.111 256.761 779.111 254C779.111 251.239 776.872 249 774.111 249V259ZM793.891 249C791.129 249 788.891 251.239 788.891 254C788.891 256.761 791.129 259 793.891 259V249ZM813.671 259C816.432 259 818.671 256.761 818.671 254C818.671 251.239 816.432 249 813.671 249V259ZM833.451 249C830.69 249 828.451 251.239 828.451 254C828.451 256.761 830.69 259 833.451 259V249ZM853.231 259C855.992 259 858.231 256.761 858.231 254C858.231 251.239 855.992 249 853.231 249V259ZM873.011 249C870.25 249 868.011 251.239 868.011 254C868.011 256.761 870.25 259 873.011 259V249ZM892.791 259C895.552 259 897.791 256.761 897.791 254C897.791 251.239 895.552 249 892.791 249V259ZM912.571 249C909.81 249 907.571 251.239 907.571 254C907.571 256.761 909.81 259 912.571 259V249ZM932.351 259C935.113 259 937.351 256.761 937.351 254C937.351 251.239 935.113 249 932.351 249V259ZM952.131 249C949.37 249 947.131 251.239 947.131 254C947.131 256.761 949.37 259 952.131 259V249ZM971.911 259C974.673 259 976.911 256.761 976.911 254C976.911 251.239 974.673 249 971.911 249V259ZM991.691 249C988.93 249 986.691 251.239 986.691 254C986.691 256.761 988.93 259 991.691 259V249ZM1011.43 259.272C1014.18 259.424 1016.54 257.312 1016.7 254.555C1016.85 251.798 1014.74 249.439 1011.98 249.287L1011.43 259.272ZM1032.65 251.592C1029.93 251.133 1027.35 252.968 1026.89 255.691C1026.43 258.414 1028.26 260.993 1030.99 261.453L1032.65 251.592ZM1050.17 265.814C1052.82 266.577 1055.59 265.044 1056.35 262.391C1057.12 259.737 1055.58 256.967 1052.93 256.203L1050.17 265.814ZM1072.56 263.072C1070.01 262.014 1067.08 263.224 1066.02 265.775C1064.97 268.326 1066.18 271.251 1068.73 272.309L1072.56 263.072ZM1086.45 280.856C1088.86 282.194 1091.9 281.32 1093.24 278.905C1094.58 276.489 1093.71 273.446 1091.29 272.108L1086.45 280.856ZM1108.89 283.188C1106.64 281.588 1103.52 282.116 1101.92 284.367C1100.32 286.618 1100.84 289.739 1103.09 291.339L1108.89 283.188ZM1118.47 303.616C1120.53 305.457 1123.69 305.28 1125.53 303.222C1127.37 301.164 1127.19 298.003 1125.14 296.162L1118.47 303.616ZM1139.84 310.864C1138 308.805 1134.84 308.629 1132.78 310.47C1130.72 312.311 1130.54 315.471 1132.38 317.53L1139.84 310.864ZM1144.66 332.905C1146.26 335.156 1149.38 335.684 1151.63 334.084C1153.88 332.484 1154.41 329.362 1152.81 327.112L1144.66 332.905ZM1163.89 344.71C1162.55 342.294 1159.51 341.42 1157.1 342.758C1154.68 344.096 1153.81 347.139 1155.14 349.555L1163.89 344.71ZM1163.69 367.272C1164.75 369.823 1167.67 371.033 1170.23 369.975C1172.78 368.917 1173.99 365.992 1172.93 363.441L1163.69 367.272ZM1179.8 383.07C1179.03 380.416 1176.26 378.884 1173.61 379.647C1170.96 380.41 1169.42 383.18 1170.19 385.834L1179.8 383.07ZM1174.55 405.014C1175.01 407.737 1177.59 409.572 1180.31 409.113C1183.03 408.653 1184.87 406.074 1184.41 403.351L1174.55 405.014ZM1186.71 424.021C1186.56 421.264 1184.2 419.152 1181.44 419.305C1178.69 419.457 1176.58 421.816 1176.73 424.573L1186.71 424.021ZM1176.73 444.264C1176.58 447.021 1178.69 449.38 1181.44 449.533C1184.2 449.685 1186.56 447.574 1186.71 444.816L1176.73 444.264ZM1184.41 465.487C1184.87 462.764 1183.03 460.184 1180.31 459.724C1177.59 459.265 1175.01 461.1 1174.55 463.823L1184.41 465.487ZM1170.19 483.003C1169.42 485.657 1170.96 488.427 1173.61 489.19C1176.26 489.954 1179.03 488.421 1179.8 485.767L1170.19 483.003ZM1172.93 505.396C1173.99 502.845 1172.78 499.92 1170.23 498.862C1167.67 497.804 1164.75 499.015 1163.69 501.565L1172.93 505.396ZM1155.14 519.282C1153.81 521.698 1154.68 524.741 1157.1 526.079C1159.51 527.417 1162.55 526.543 1163.89 524.128L1155.14 519.282ZM1152.81 541.726C1154.41 539.475 1153.88 536.353 1151.63 534.753C1149.38 533.154 1146.26 533.681 1144.66 535.932L1152.81 541.726ZM1132.38 551.307C1130.54 553.366 1130.72 556.527 1132.78 558.367C1134.84 560.208 1138 560.032 1139.84 557.973L1132.38 551.307ZM1125.14 572.675C1127.19 570.835 1127.37 567.674 1125.53 565.615C1123.69 563.557 1120.53 563.38 1118.47 565.221L1125.14 572.675ZM1103.09 577.498C1100.84 579.098 1100.32 582.22 1101.92 584.47C1103.52 586.721 1106.64 587.249 1108.89 585.649L1103.09 577.498ZM1091.29 596.729C1093.71 595.391 1094.58 592.348 1093.24 589.933C1091.9 587.517 1088.86 586.643 1086.45 587.981L1091.29 596.729ZM1068.73 596.528C1066.18 597.586 1064.97 600.511 1066.02 603.062C1067.08 605.613 1070.01 606.823 1072.56 605.766L1068.73 596.528ZM1052.93 612.634C1055.58 611.871 1057.12 609.1 1056.35 606.447C1055.59 603.793 1052.82 602.26 1050.17 603.023L1052.93 612.634ZM1030.99 607.384C1028.26 607.844 1026.43 610.424 1026.89 613.147C1027.35 615.87 1029.93 617.704 1032.65 617.245L1030.99 607.384ZM1011.98 619.55C1014.74 619.398 1016.85 617.039 1016.7 614.282C1016.54 611.525 1014.18 609.413 1011.43 609.566L1011.98 619.55ZM991.607 609.837C988.845 609.837 986.607 612.076 986.607 614.837C986.607 617.599 988.845 619.837 991.607 619.837V609.837ZM971.658 619.837C974.419 619.837 976.658 617.599 976.658 614.837C976.658 612.076 974.419 609.837 971.658 609.837V619.837ZM951.709 609.837C948.948 609.837 946.709 612.076 946.709 614.837C946.709 617.599 948.948 619.837 951.709 619.837V609.837ZM931.76 619.837C934.521 619.837 936.76 617.599 936.76 614.837C936.76 612.076 934.521 609.837 931.76 609.837V619.837ZM911.811 609.837C909.05 609.837 906.811 612.076 906.811 614.837C906.811 617.599 909.05 619.837 911.811 619.837V609.837ZM891.862 619.837C894.624 619.837 896.862 617.599 896.862 614.837C896.862 612.076 894.624 609.837 891.862 609.837V619.837ZM871.913 609.837C869.152 609.837 866.913 612.076 866.913 614.837C866.913 617.599 869.152 619.837 871.913 619.837V609.837ZM851.964 619.837C854.726 619.837 856.964 617.599 856.964 614.837C856.964 612.076 854.726 609.837 851.964 609.837V619.837ZM832.015 609.837C829.254 609.837 827.015 612.076 827.015 614.837C827.015 617.599 829.254 619.837 832.015 619.837V609.837ZM812.066 619.837C814.828 619.837 817.066 617.599 817.066 614.837C817.066 612.076 814.828 609.837 812.066 609.837V619.837ZM792.117 609.837C789.356 609.837 787.117 612.076 787.117 614.837C787.117 617.599 789.356 619.837 792.117 619.837V609.837ZM772.168 619.837C774.93 619.837 777.168 617.599 777.168 614.837C777.168 612.076 774.93 609.837 772.168 609.837V619.837ZM752.219 609.837C749.458 609.837 747.219 612.076 747.219 614.837C747.219 617.599 749.458 619.837 752.219 619.837V609.837ZM732.27 619.837C735.032 619.837 737.27 617.599 737.27 614.837C737.27 612.076 735.032 609.837 732.27 609.837V619.837ZM712.321 609.837C709.56 609.837 707.321 612.076 707.321 614.837C707.321 617.599 709.56 619.837 712.321 619.837V609.837ZM692.372 619.837C695.134 619.837 697.372 617.599 697.372 614.837C697.372 612.076 695.134 609.837 692.372 609.837V619.837ZM672.423 609.837C669.662 609.837 667.423 612.076 667.423 614.837C667.423 617.599 669.662 619.837 672.423 619.837V609.837ZM652.474 619.837C655.236 619.837 657.474 617.599 657.474 614.837C657.474 612.076 655.236 609.837 652.474 609.837V619.837ZM632.924 609.837C630.163 609.837 627.924 612.076 627.924 614.837C627.924 617.599 630.163 619.837 632.924 619.837V609.837ZM613.773 619.837C616.535 619.837 618.773 617.599 618.773 614.837C618.773 612.076 616.535 609.837 613.773 609.837V619.837ZM594.622 609.837C591.861 609.837 589.622 612.076 589.622 614.837C589.622 617.599 591.861 619.837 594.622 619.837V609.837ZM575.471 619.837C578.232 619.837 580.471 617.599 580.471 614.837C580.471 612.076 578.232 609.837 575.471 609.837V619.837ZM556.32 609.837C553.558 609.837 551.32 612.076 551.32 614.837C551.32 617.599 553.558 619.837 556.32 619.837V609.837ZM537.169 619.837C539.93 619.837 542.169 617.599 542.169 614.837C542.169 612.076 539.93 609.837 537.169 609.837V619.837ZM518.017 609.837C515.256 609.837 513.017 612.076 513.017 614.837C513.017 617.599 515.256 619.837 518.017 619.837V609.837ZM498.866 619.837C501.628 619.837 503.866 617.599 503.866 614.837C503.866 612.076 501.628 609.837 498.866 609.837V619.837ZM479.715 609.837C476.954 609.837 474.715 612.076 474.715 614.837C474.715 617.599 476.954 619.837 479.715 619.837V609.837ZM460.564 619.837C463.325 619.837 465.564 617.599 465.564 614.837C465.564 612.076 463.325 609.837 460.564 609.837V619.837ZM441.413 609.837C438.651 609.837 436.413 612.076 436.413 614.837C436.413 617.599 438.651 619.837 441.413 619.837V609.837ZM422.262 619.837C425.023 619.837 427.262 617.599 427.262 614.837C427.262 612.076 425.023 609.837 422.262 609.837V619.837ZM403.11 609.837C400.349 609.837 398.11 612.076 398.11 614.837C398.11 617.599 400.349 619.837 403.11 619.837V609.837ZM383.959 619.837C386.721 619.837 388.959 617.599 388.959 614.837C388.959 612.076 386.721 609.837 383.959 609.837V619.837ZM364.808 609.837C362.047 609.837 359.808 612.076 359.808 614.837C359.808 617.599 362.047 619.837 364.808 619.837V609.837ZM345.657 619.837C348.418 619.837 350.657 617.599 350.657 614.837C350.657 612.076 348.418 609.837 345.657 609.837V619.837ZM325.254 610.136C322.497 610.288 320.385 612.647 320.537 615.404C320.69 618.161 323.049 620.273 325.806 620.121L325.254 610.136ZM305.393 622.397C308.116 621.938 309.951 619.358 309.491 616.635C309.032 613.912 306.452 612.077 303.729 612.537L305.393 622.397ZM282.611 617.338C279.957 618.102 278.424 620.872 279.187 623.525C279.951 626.179 282.721 627.712 285.375 626.949L282.611 617.338ZM266.001 633.728C268.552 632.67 269.763 629.744 268.705 627.194C267.647 624.643 264.722 623.433 262.171 624.49L266.001 633.728ZM242.665 633.9C240.25 635.238 239.376 638.281 240.714 640.697C242.052 643.112 245.095 643.986 247.51 642.648L242.665 633.9ZM230.134 653.589C232.384 651.989 232.912 648.867 231.312 646.617C229.712 644.366 226.591 643.838 224.34 645.438L230.134 653.589ZM207.421 658.948C205.362 660.789 205.186 663.95 207.026 666.008C208.867 668.067 212.028 668.243 214.087 666.402L207.421 658.948ZM199.565 680.924C201.406 678.865 201.229 675.704 199.171 673.864C197.113 672.023 193.952 672.199 192.111 674.258L199.565 680.924ZM178.601 691.177C177.001 693.428 177.529 696.549 179.78 698.149C182.03 699.749 185.152 699.221 186.752 696.971L178.601 691.177ZM175.811 714.347C177.149 711.932 176.275 708.889 173.86 707.551C171.444 706.213 168.401 707.087 167.063 709.502L175.811 714.347ZM157.653 729.008C156.595 731.559 157.806 734.484 160.356 735.542C162.907 736.6 165.833 735.389 166.89 732.839L157.653 729.008ZM160.111 752.212C160.875 749.558 159.342 746.788 156.688 746.025C154.034 745.261 151.264 746.794 150.501 749.448L160.111 752.212ZM145.699 770.566C145.24 773.289 147.075 775.869 149.798 776.329C152.521 776.788 155.101 774.953 155.56 772.23L145.699 770.566ZM153.283 792.643C153.436 789.886 151.324 787.527 148.567 787.375C145.81 787.222 143.451 789.334 143.299 792.091L153.283 792.643ZM143.299 813.746C143.451 816.503 145.81 818.615 148.567 818.463C151.324 818.31 153.436 815.951 153.283 813.194L143.299 813.746ZM155.56 833.607C155.101 830.884 152.521 829.049 149.798 829.509C147.075 829.968 145.24 832.548 145.699 835.271L155.56 833.607ZM150.501 856.389C151.264 859.043 154.034 860.576 156.688 859.813C159.342 859.049 160.875 856.279 160.111 853.625L150.501 856.389ZM166.89 872.999C165.833 870.448 162.907 869.237 160.356 870.295C157.806 871.353 156.595 874.278 157.653 876.829L166.89 872.999ZM167.063 896.335C168.401 898.75 171.444 899.624 173.86 898.286C176.275 896.948 177.149 893.905 175.811 891.49L167.063 896.335ZM186.752 908.866C185.152 906.616 182.03 906.088 179.78 907.688C177.529 909.288 177.001 912.409 178.601 914.66L186.752 908.866ZM192.111 931.579C193.952 933.638 197.113 933.814 199.171 931.974C201.229 930.133 201.406 926.972 199.565 924.913L192.111 931.579ZM214.087 939.435C212.028 937.594 208.867 937.771 207.026 939.829C205.186 941.887 205.362 945.048 207.421 946.889L214.087 939.435ZM224.34 960.399C226.591 961.999 229.712 961.471 231.312 959.22C232.912 956.97 232.384 953.848 230.134 952.248L224.34 960.399ZM247.51 963.189C245.095 961.851 242.052 962.725 240.714 965.14C239.376 967.556 240.25 970.599 242.665 971.937L247.51 963.189ZM262.171 981.347C264.722 982.405 267.647 981.194 268.705 978.644C269.763 976.093 268.552 973.167 266.001 972.11L262.171 981.347ZM285.375 978.889C282.721 978.125 279.951 979.658 279.188 982.312C278.424 984.966 279.957 987.736 282.611 988.499L285.375 978.889ZM303.729 993.301C306.452 993.76 309.032 991.925 309.491 989.202C309.951 986.479 308.116 983.899 305.393 983.44L303.729 993.301ZM325.806 985.717C323.049 985.564 320.69 987.676 320.537 990.433C320.385 993.19 322.497 995.549 325.254 995.701L325.806 985.717ZM346.146 996C348.908 996 351.146 993.761 351.146 991C351.146 988.239 348.908 986 346.146 986V996ZM366.276 986C363.515 986 361.276 988.239 361.276 991C361.276 993.761 363.515 996 366.276 996V986ZM386.406 996C389.168 996 391.406 993.761 391.406 991C391.406 988.239 389.168 986 386.406 986V996ZM406.536 986C403.775 986 401.536 988.239 401.536 991C401.536 993.761 403.775 996 406.536 996V986ZM426.666 996C429.428 996 431.666 993.761 431.666 991C431.666 988.239 429.428 986 426.666 986V996ZM446.796 986C444.035 986 441.796 988.239 441.796 991C441.796 993.761 444.035 996 446.796 996V986ZM466.926 996C469.688 996 471.926 993.761 471.926 991C471.926 988.239 469.688 986 466.926 986V996ZM487.056 986C484.295 986 482.056 988.239 482.056 991C482.056 993.761 484.295 996 487.056 996V986ZM507.186 996C509.947 996 512.186 993.761 512.186 991C512.186 988.239 509.947 986 507.186 986V996ZM527.316 986C524.555 986 522.316 988.239 522.316 991C522.316 993.761 524.555 996 527.316 996V986ZM547.446 996C550.207 996 552.446 993.761 552.446 991C552.446 988.239 550.207 986 547.446 986V996ZM567.576 986C564.815 986 562.576 988.239 562.576 991C562.576 993.761 564.815 996 567.576 996V986ZM587.706 996C590.467 996 592.706 993.761 592.706 991C592.706 988.239 590.467 986 587.706 986V996ZM607.836 986C605.074 986 602.836 988.239 602.836 991C602.836 993.761 605.074 996 607.836 996V986ZM627.966 996C630.727 996 632.966 993.761 632.966 991C632.966 988.239 630.727 986 627.966 986V996ZM648.096 986C645.334 986 643.096 988.239 643.096 991C643.096 993.761 645.334 996 648.096 996V986ZM668.226 996C670.987 996 673.226 993.761 673.226 991C673.226 988.239 670.987 986 668.226 986V996ZM688.356 986C685.594 986 683.356 988.239 683.356 991C683.356 993.761 685.594 996 688.356 996V986ZM708.486 996C711.247 996 713.486 993.761 713.486 991C713.486 988.239 711.247 986 708.486 986V996ZM728.616 986C725.854 986 723.616 988.239 723.616 991C723.616 993.761 725.854 996 728.616 996V986ZM748.745 996C751.507 996 753.745 993.761 753.745 991C753.745 988.239 751.507 986 748.745 986V996ZM768.875 986C766.114 986 763.875 988.239 763.875 991C763.875 993.761 766.114 996 768.875 996V986ZM789.005 996C791.767 996 794.005 993.761 794.005 991C794.005 988.239 791.767 986 789.005 986V996ZM809.135 986C806.374 986 804.135 988.239 804.135 991C804.135 993.761 806.374 996 809.135 996V986ZM829.265 996C832.027 996 834.265 993.761 834.265 991C834.265 988.239 832.027 986 829.265 986V996ZM849.395 986C846.634 986 844.395 988.239 844.395 991C844.395 993.761 846.634 996 849.395 996V986ZM869.525 996C872.287 996 874.525 993.761 874.525 991C874.525 988.239 872.287 986 869.525 986V996ZM889.655 986C886.894 986 884.655 988.239 884.655 991C884.655 993.761 886.894 996 889.655 996V986ZM909.785 996C912.546 996 914.785 993.761 914.785 991C914.785 988.239 912.546 986 909.785 986V996ZM929.915 986C927.154 986 924.915 988.239 924.915 991C924.915 993.761 927.154 996 929.915 996V986ZM950.045 996C952.806 996 955.045 993.761 955.045 991C955.045 988.239 952.806 986 950.045 986V996ZM970.175 986C967.413 986 965.175 988.239 965.175 991C965.175 993.761 967.413 996 970.175 996V986ZM990.305 996C993.066 996 995.305 993.761 995.305 991C995.305 988.239 993.066 986 990.305 986V996ZM1010.43 986C1007.67 986 1005.43 988.239 1005.43 991C1005.43 993.761 1007.67 996 1010.43 996V986ZM289.5 259H299.39V249H289.5V259ZM319.17 259H338.95V249H319.17V259ZM358.73 259H378.51V249H358.73V259ZM398.29 259H418.07V249H398.29V259ZM437.85 259H457.63V249H437.85V259ZM477.41 259H497.19V249H477.41V259ZM516.97 259H536.751V249H516.97V259ZM556.531 259H576.311V249H556.531V259ZM596.091 259H615.871V249H596.091V259ZM635.651 259H655.431V249H635.651V259ZM675.211 259H694.991V249H675.211V259ZM714.771 259H734.551V249H714.771V259ZM754.331 259H774.111V249H754.331V259ZM793.891 259H813.671V249H793.891V259ZM833.451 259H853.231V249H833.451V259ZM873.011 259H892.791V249H873.011V259ZM912.571 259H932.351V249H912.571V259ZM952.131 259H971.911V249H952.131V259ZM991.691 259H1001.58V249H991.691V259ZM1001.58 259C1004.89 259 1008.17 259.091 1011.43 259.272L1011.98 249.287C1008.54 249.096 1005.07 249 1001.58 249V259ZM1030.99 261.453C1037.51 262.554 1043.91 264.014 1050.17 265.814L1052.93 256.203C1046.31 254.3 1039.55 252.756 1032.65 251.592L1030.99 261.453ZM1068.73 272.309C1074.81 274.833 1080.73 277.689 1086.45 280.856L1091.29 272.108C1085.25 268.76 1078.99 265.74 1072.56 263.072L1068.73 272.309ZM1103.09 291.339C1108.45 295.146 1113.58 299.246 1118.47 303.616L1125.14 296.162C1119.97 291.544 1114.55 287.211 1108.89 283.188L1103.09 291.339ZM1132.38 317.53C1136.75 322.417 1140.85 327.55 1144.66 332.905L1152.81 327.112C1148.79 321.452 1144.46 316.028 1139.84 310.864L1132.38 317.53ZM1155.14 349.555C1158.31 355.273 1161.17 361.186 1163.69 367.272L1172.93 363.441C1170.26 357.006 1167.24 350.754 1163.89 344.71L1155.14 349.555ZM1170.19 385.834C1171.99 392.091 1173.45 398.491 1174.55 405.014L1184.41 403.351C1183.24 396.454 1181.7 389.686 1179.8 383.07L1170.19 385.834ZM1176.73 424.573C1176.91 427.831 1177 431.114 1177 434.419H1187C1187 430.93 1186.9 427.463 1186.71 424.021L1176.73 424.573ZM1177 434.419C1177 437.723 1176.91 441.006 1176.73 444.264L1186.71 444.816C1186.9 441.374 1187 437.907 1187 434.419H1177ZM1174.55 463.823C1173.45 470.346 1171.99 476.746 1170.19 483.003L1179.8 485.767C1181.7 479.151 1183.24 472.383 1184.41 465.487L1174.55 463.823ZM1163.69 501.565C1161.17 507.651 1158.31 513.564 1155.14 519.282L1163.89 524.128C1167.24 518.083 1170.26 511.831 1172.93 505.396L1163.69 501.565ZM1144.66 535.932C1140.85 541.288 1136.75 546.421 1132.38 551.307L1139.84 557.973C1144.46 552.81 1148.79 547.386 1152.81 541.726L1144.66 535.932ZM1118.47 565.221C1113.58 569.591 1108.45 573.691 1103.09 577.498L1108.89 585.649C1114.55 581.626 1119.97 577.293 1125.14 572.675L1118.47 565.221ZM1086.45 587.981C1080.73 591.148 1074.81 594.005 1068.73 596.528L1072.56 605.766C1078.99 603.097 1085.25 600.077 1091.29 596.729L1086.45 587.981ZM1050.17 603.023C1043.91 604.823 1037.51 606.284 1030.99 607.384L1032.65 617.245C1039.55 616.081 1046.31 614.537 1052.93 612.634L1050.17 603.023ZM1011.43 609.566C1008.17 609.746 1004.89 609.837 1001.58 609.837V619.837C1005.07 619.837 1008.54 619.741 1011.98 619.55L1011.43 609.566ZM1001.58 609.837H991.607V619.837H1001.58V609.837ZM971.658 609.837H951.709V619.837H971.658V609.837ZM931.76 609.837H911.811V619.837H931.76V609.837ZM891.862 609.837H871.913V619.837H891.862V609.837ZM851.964 609.837H832.015V619.837H851.964V609.837ZM812.066 609.837H792.117V619.837H812.066V609.837ZM772.168 609.837H752.219V619.837H772.168V609.837ZM732.27 609.837H712.321V619.837H732.27V609.837ZM692.372 609.837H672.423V619.837H692.372V609.837ZM652.474 609.837H642.5V619.837H652.474V609.837ZM642.5 609.837H632.924V619.837H642.5V609.837ZM613.773 609.837H594.622V619.837H613.773V609.837ZM575.471 609.837H556.32V619.837H575.471V609.837ZM537.169 609.837H518.017V619.837H537.169V609.837ZM498.866 609.837H479.715V619.837H498.866V609.837ZM460.564 609.837H441.413V619.837H460.564V609.837ZM422.262 609.837H403.11V619.837H422.262V609.837ZM383.959 609.837H364.808V619.837H383.959V609.837ZM345.657 609.837H336.081V619.837H345.657V609.837ZM336.081 609.837C332.448 609.837 328.838 609.938 325.254 610.136L325.806 620.121C329.207 619.932 332.633 619.837 336.081 619.837V609.837ZM303.729 612.537C296.548 613.748 289.5 615.357 282.611 617.338L285.375 626.949C291.905 625.07 298.585 623.546 305.393 622.397L303.729 612.537ZM262.171 624.49C255.47 627.269 248.96 630.414 242.665 633.9L247.51 642.648C253.478 639.343 259.65 636.361 266.001 633.728L262.171 624.49ZM224.34 645.438C218.446 649.628 212.798 654.14 207.421 658.948L214.087 666.402C219.187 661.841 224.544 657.562 230.134 653.589L224.34 645.438ZM192.111 674.258C187.302 679.635 182.79 685.283 178.601 691.177L186.752 696.971C190.725 691.381 195.004 686.024 199.565 680.924L192.111 674.258ZM167.063 709.502C163.577 715.797 160.432 722.307 157.653 729.008L166.89 732.839C169.524 726.487 172.506 720.315 175.811 714.347L167.063 709.502ZM150.501 749.448C148.519 756.338 146.911 763.385 145.699 770.566L155.56 772.23C156.709 765.422 158.233 758.742 160.111 752.212L150.501 749.448ZM143.299 792.091C143.1 795.675 143 799.286 143 802.919H153C153 799.47 153.095 796.044 153.283 792.643L143.299 792.091ZM143 802.919C143 806.552 143.1 810.162 143.299 813.746L153.283 813.194C153.095 809.793 153 806.367 153 802.919H143ZM145.699 835.271C146.911 842.452 148.519 849.5 150.501 856.389L160.111 853.625C158.233 847.095 156.709 840.415 155.56 833.607L145.699 835.271ZM157.653 876.829C160.432 883.53 163.577 890.04 167.063 896.335L175.811 891.49C172.506 885.522 169.524 879.35 166.89 872.999L157.653 876.829ZM178.601 914.66C182.79 920.554 187.302 926.202 192.111 931.579L199.565 924.913C195.004 919.813 190.725 914.456 186.752 908.866L178.601 914.66ZM207.421 946.889C212.798 951.698 218.446 956.21 224.34 960.399L230.134 952.248C224.544 948.275 219.187 943.996 214.087 939.435L207.421 946.889ZM242.665 971.937C248.96 975.423 255.47 978.568 262.171 981.347L266.001 972.11C259.65 969.476 253.478 966.494 247.51 963.189L242.665 971.937ZM282.611 988.499C289.5 990.481 296.548 992.089 303.729 993.301L305.393 983.44C298.585 982.291 291.905 980.767 285.375 978.889L282.611 988.499ZM325.254 995.701C328.838 995.9 332.448 996 336.081 996V986C332.633 986 329.207 985.905 325.806 985.717L325.254 995.701ZM336.081 996H346.146V986H336.081V996ZM366.276 996H386.406V986H366.276V996ZM406.536 996H426.666V986H406.536V996ZM446.796 996H466.926V986H446.796V996ZM487.056 996H507.186V986H487.056V996ZM527.316 996H547.446V986H527.316V996ZM567.576 996H587.706V986H567.576V996ZM607.836 996H627.966V986H607.836V996ZM648.096 996H668.226V986H648.096V996ZM688.356 996H708.486V986H688.356V996ZM728.616 996H748.745V986H728.616V996ZM768.875 996H789.005V986H768.875V996ZM809.135 996H829.265V986H809.135V996ZM849.395 996H869.525V986H849.395V996ZM889.655 996H909.785V986H889.655V996ZM929.915 996H950.045V986H929.915V996ZM970.175 996H990.305V986H970.175V996Z" fill="#3182CE" fill-opacity="0.5"/>
</svg>
