<svg width="140" height="154" viewBox="0 0 140 154" fill="none" xmlns="http://www.w3.org/2000/svg">
    <path fill-rule="evenodd" clip-rule="evenodd" d="M57.5 4.21687C65.235 -0.248947 74.765 -0.248948 82.5 4.21687L126.782 29.7831C134.517 34.2489 139.282 42.5021 139.282 51.4338V102.566C139.282 111.498 134.517 119.751 126.782 124.217L82.5 149.783C74.765 154.249 65.235 154.249 57.5 149.783L13.218 124.217C5.48293 119.751 0.717957 111.498 0.717957 102.566V51.4338C0.717957 42.5021 5.48293 34.2489 13.218 29.7831L57.5 4.21687ZM102.152 42.1418L71.9134 29.6165C70.6883 29.109 69.3117 29.109 68.0866 29.6165L37.8478 42.1418C36.6227 42.6493 35.6493 43.6226 35.1418 44.8478L22.6165 75.0866C22.109 76.3117 22.109 77.6883 22.6165 78.9134L35.1418 109.152C35.6493 110.377 36.6226 111.351 37.8478 111.858L68.0866 124.384C69.3117 124.891 70.6883 124.891 71.9134 124.384L102.152 111.858C103.377 111.351 104.351 110.377 104.858 109.152L117.384 78.9134C117.891 77.6883 117.891 76.3117 117.384 75.0866L104.858 44.8478C104.351 43.6227 103.377 42.6493 102.152 42.1418ZM75.7402 20.3777C72.0648 18.8553 67.9352 18.8553 64.2597 20.3777L34.021 32.903C30.3455 34.4254 27.4254 37.3455 25.903 41.021L13.3777 71.2598C11.8553 74.9352 11.8553 79.0648 13.3777 82.7403L25.903 112.979C27.4254 116.654 30.3455 119.575 34.021 121.097L64.2597 133.622C67.9352 135.145 72.0648 135.145 75.7403 133.622L105.979 121.097C109.654 119.575 112.575 116.654 114.097 112.979L126.622 82.7402C128.145 79.0648 128.145 74.9352 126.622 71.2598L114.097 41.021C112.575 37.3455 109.654 34.4254 105.979 32.903L75.7402 20.3777ZM29.2969 73.6406V81.027L55.0071 91.8224V83.7614L38.299 77.5046V77.1633L55.0071 70.924V62.8452L29.2969 73.6406ZM62.0783 64.7273V92H70.7608V77.1918C70.7608 76.1027 70.9917 75.1558 71.4533 74.3509C71.9268 73.5341 72.5719 72.9008 73.3887 72.451C74.2173 71.9893 75.1465 71.7585 76.1763 71.7585C76.6972 71.7585 77.289 71.7999 77.9519 71.8828C78.6266 71.9657 79.1711 72.0781 79.5854 72.2202V64.674C79.2185 64.5675 78.8219 64.4905 78.3958 64.4432C77.9696 64.384 77.5553 64.3544 77.1529 64.3544C75.6614 64.3544 74.3534 64.7983 73.2289 65.6861C72.1043 66.562 71.2935 67.8996 70.7963 69.6989H70.5123V64.7273H62.0783ZM84.668 91.8224L110.378 81.027V73.6406L84.668 62.8452V70.924L101.394 77.17V77.4979L84.668 83.7614V91.8224Z" fill="#00A3FF" />
</svg>