<svg id="visual" viewBox="0 0 1500 540" width="1500" height="540" xmlns="http://www.w3.org/2000/svg" xmlns:xlink="http://www.w3.org/1999/xlink" version="1.1"><path d="M0 431L41.7 437.2C83.3 443.3 166.7 455.7 250 467.8C333.3 480 416.7 492 500 498.5C583.3 505 666.7 506 750 495.8C833.3 485.7 916.7 464.3 1000 458.8C1083.3 453.3 1166.7 463.7 1250 474.5C1333.3 485.3 1416.7 496.7 1458.3 502.3L1500 508L1500 541L1458.3 541C1416.7 541 1333.3 541 1250 541C1166.7 541 1083.3 541 1000 541C916.7 541 833.3 541 750 541C666.7 541 583.3 541 500 541C416.7 541 333.3 541 250 541C166.7 541 83.3 541 41.7 541L0 541Z" fill="#0066FF" stroke-linecap="round" stroke-linejoin="miter"></path></svg>