<svg id="visual" viewBox="0 0 1500 540" width="1500" height="540" xmlns="http://www.w3.org/2000/svg" xmlns:xlink="http://www.w3.org/1999/xlink" version="1.1"><path d="M0 107L41.7 100.8C83.3 94.7 166.7 82.3 250 70.2C333.3 58 416.7 46 500 39.5C583.3 33 666.7 32 750 42.2C833.3 52.3 916.7 73.7 1000 79.2C1083.3 84.7 1166.7 74.3 1250 63.5C1333.3 52.7 1416.7 41.3 1458.3 35.7L1500 30L1500 0L1458.3 0C1416.7 0 1333.3 0 1250 0C1166.7 0 1083.3 0 1000 0C916.7 0 833.3 0 750 0C666.7 0 583.3 0 500 0C416.7 0 333.3 0 250 0C166.7 0 83.3 0 41.7 0L0 0Z" fill="#0066FF" stroke-linecap="round" stroke-linejoin="miter"></path></svg>